<svg width="143" height="143" viewBox="0 0 143 143" fill="none" xmlns="http://www.w3.org/2000/svg">
<path id="Ellipse" d="M57.9153 2.91886C66.9215 1.14868 76.1882 1.16974 85.1863 2.98084C94.1844 4.79195 102.738 8.35762 110.358 13.4743C117.978 18.5909 124.515 25.1584 129.597 32.8016C134.679 40.4449 138.206 49.0143 139.976 58.0205C141.746 67.0267 141.725 76.2934 139.914 85.2915C138.103 94.2896 134.538 102.843 129.421 110.463C124.304 118.083 117.737 124.621 110.094 129.703C102.45 134.785 93.8809 138.311 84.8746 140.082C75.8684 141.852 66.6017 141.831 57.6036 140.02C48.6055 138.208 40.0523 134.643 32.4322 129.526C24.8121 124.409 18.2745 117.842 13.1925 110.199C8.11055 102.555 4.5838 93.9861 2.81363 84.9799C1.04345 75.9736 1.06452 66.7069 2.87563 57.7088C4.68673 48.7107 8.25241 40.1575 13.3691 32.5374C18.4857 24.9173 25.0532 18.3797 32.6964 13.2977C40.3397 8.21577 48.9091 4.68902 57.9153 2.91885L57.9153 2.91886Z" stroke="#40DDB6" stroke-width="3" stroke-linecap="round" stroke-linejoin="round"/>
</svg>
